<svg width="300" height="75" viewBox="0 0 300 75" fill="none" xmlns="http://www.w3.org/2000/svg">
<path d="M18.08 21.1601C18.08 11.8721 4.544 15.9041 4.544 9.4241C4.544 6.7241 6.668 5.32009 9.368 5.3921C12.428 5.42809 14.012 7.3361 14.228 9.0281H17.828C17.432 5.2121 14.3 2.58409 9.512 2.58409C4.544 2.58409 1.196 5.39209 1.196 9.53209C1.196 18.8561 14.768 14.5361 14.768 21.3041C14.768 23.6801 12.896 25.4801 9.728 25.4801C6.236 25.4801 4.76 23.3921 4.544 21.3041H1.052C1.124 25.4441 4.688 28.2521 9.728 28.2521C15.164 28.2521 18.08 24.7241 18.08 21.1601Z" fill="#A380F6"/>
<path d="M40.3969 8.27209H37.1209V19.1081C37.1209 23.3561 34.8529 25.4441 31.4689 25.4441C28.1569 25.4441 25.9609 23.3921 25.9609 19.3961V8.27209H22.7209V19.8281C22.7209 25.4801 26.2849 28.2881 30.8209 28.2881C33.4489 28.2881 35.8609 27.1361 37.1209 25.0841V28.0001H40.3969V8.27209Z" fill="#A380F6"/>
<path d="M44.7043 18.0641C44.7043 24.1841 48.7723 28.3241 54.0283 28.3241C57.6643 28.3241 60.2203 26.4521 61.4083 24.3281V28.0001H64.7203V8.27209H61.4083V11.8721C60.2563 9.8201 57.7363 7.94809 54.0643 7.94809C48.7723 7.94809 44.7043 11.9081 44.7043 18.0641ZM61.4083 18.1001C61.4083 22.7441 58.3123 25.4441 54.7123 25.4441C51.1123 25.4441 48.0523 22.7081 48.0523 18.0641C48.0523 13.4201 51.1123 10.7921 54.7123 10.7921C58.3123 10.7921 61.4083 13.5281 61.4083 18.1001Z" fill="#A380F6"/>
<path d="M83.13 11.9081V8.27209H79.854V37.3601H83.13V24.3641C84.354 26.3801 86.91 28.3241 90.51 28.3241C95.802 28.3241 99.87 24.1841 99.87 18.0641C99.87 11.9081 95.802 7.94809 90.51 7.94809C86.91 7.94809 84.318 9.8201 83.13 11.9081ZM96.522 18.0641C96.522 22.7081 93.462 25.4441 89.826 25.4441C86.262 25.4441 83.13 22.7441 83.13 18.1001C83.13 13.5281 86.262 10.7921 89.826 10.7921C93.462 10.7921 96.522 13.4201 96.522 18.0641Z" fill="#A380F6"/>
<path d="M104.182 28.0001H107.458V1.3601H104.182V28.0001Z" fill="#A380F6"/>
<path d="M111.818 18.0641C111.818 24.1841 115.886 28.3241 121.142 28.3241C124.778 28.3241 127.334 26.4521 128.522 24.3281V28.0001H131.834V8.27209H128.522V11.8721C127.37 9.8201 124.85 7.94809 121.178 7.94809C115.886 7.94809 111.818 11.9081 111.818 18.0641ZM128.522 18.1001C128.522 22.7441 125.426 25.4441 121.826 25.4441C118.226 25.4441 115.166 22.7081 115.166 18.0641C115.166 13.4201 118.226 10.7921 121.826 10.7921C125.426 10.7921 128.522 13.5281 128.522 18.1001Z" fill="#A380F6"/>
<path d="M137.982 28.0001H141.258V10.9721H145.398V8.27209H141.258V6.8681C141.258 4.31209 142.23 3.2321 145.182 3.2321V0.496094C140.142 0.496094 137.982 2.47609 137.982 6.8681V8.27209H135.426V10.9721H137.982V28.0001Z" fill="#A380F6"/>
<path d="M167.937 18.1001C167.937 11.8721 163.581 7.94809 157.965 7.94809C152.385 7.94809 147.993 11.8721 147.993 18.1001C147.993 24.3641 152.241 28.3241 157.821 28.3241C163.437 28.3241 167.937 24.3641 167.937 18.1001ZM151.341 18.1001C151.341 13.1321 154.473 10.7921 157.929 10.7921C161.313 10.7921 164.589 13.1321 164.589 18.1001C164.589 23.1041 161.241 25.4441 157.821 25.4441C154.401 25.4441 151.341 23.1041 151.341 18.1001Z" fill="#A380F6"/>
<path d="M175.521 17.2721C175.521 12.7001 177.897 11.2961 181.029 11.2961H181.893V7.9121C178.761 7.9121 176.637 9.28009 175.521 11.4761V8.27209H172.245V28.0001H175.521V17.2721Z" fill="#A380F6"/>
<path d="M214.15 28.0001H217.39V16.3721C217.39 10.7201 213.898 7.9121 209.398 7.9121C206.374 7.9121 203.566 9.46009 202.414 12.3041C201.118 9.3521 198.418 7.9121 195.178 7.9121C192.586 7.9121 190.246 9.0281 188.95 11.1161V8.27209H185.674V28.0001H188.95V17.1281C188.95 12.8801 191.218 10.7561 194.53 10.7561C197.77 10.7561 199.93 12.8081 199.93 16.8401V28.0001H203.17V17.1281C203.17 12.8801 205.438 10.7561 208.75 10.7561C211.99 10.7561 214.15 12.8081 214.15 16.8401V28.0001Z" fill="#A380F6"/>
<path d="M221.54 18.0641C221.54 24.1841 225.608 28.3241 230.864 28.3241C234.5 28.3241 237.056 26.4521 238.244 24.3281V28.0001H241.556V8.27209H238.244V11.8721C237.092 9.8201 234.572 7.94809 230.9 7.94809C225.608 7.94809 221.54 11.9081 221.54 18.0641ZM238.244 18.1001C238.244 22.7441 235.148 25.4441 231.548 25.4441C227.948 25.4441 224.888 22.7081 224.888 18.0641C224.888 13.4201 227.948 10.7921 231.548 10.7921C235.148 10.7921 238.244 13.5281 238.244 18.1001Z" fill="#A380F6"/>
<path d="M255.466 18.0641C255.466 24.1841 259.534 28.3241 264.826 28.3241C268.426 28.3241 270.982 26.4881 272.17 24.2921V28.0001H275.482V1.3601H272.17V11.8001C270.802 9.5321 267.958 7.94809 264.862 7.94809C259.534 7.94809 255.466 11.9081 255.466 18.0641ZM272.17 18.1001C272.17 22.7441 269.074 25.4441 265.474 25.4441C261.874 25.4441 258.814 22.7081 258.814 18.0641C258.814 13.4201 261.874 10.7921 265.474 10.7921C269.074 10.7921 272.17 13.5281 272.17 18.1001Z" fill="#A380F6"/>
<path d="M289.406 10.7201C292.79 10.7201 295.67 12.8441 295.634 16.6961H283.178C283.538 12.8441 286.202 10.7201 289.406 10.7201ZM298.622 21.9161H295.094C294.374 24.0401 292.502 25.5521 289.55 25.5521C286.202 25.5521 283.394 23.3561 283.142 19.3601H298.91C298.982 18.6761 299.018 18.1001 299.018 17.3801C299.018 11.9801 295.274 7.94809 289.55 7.94809C283.79 7.94809 279.794 11.8721 279.794 18.1001C279.794 24.3641 283.934 28.3241 289.55 28.3241C294.446 28.3241 297.614 25.5161 298.622 21.9161Z" fill="#A380F6"/>
<path d="M10.16 56.7201C13.544 56.7201 16.424 58.8441 16.388 62.6961H3.932C4.292 58.8441 6.95601 56.7201 10.16 56.7201ZM19.376 67.9161H15.848C15.128 70.0401 13.256 71.5521 10.304 71.5521C6.956 71.5521 4.148 69.3561 3.896 65.3601H19.664C19.736 64.6761 19.772 64.1001 19.772 63.3801C19.772 57.9801 16.028 53.9481 10.304 53.9481C4.544 53.9481 0.548004 57.8721 0.548004 64.1001C0.548004 70.3641 4.688 74.3241 10.304 74.3241C15.2 74.3241 18.368 71.5161 19.376 67.9161Z" fill="#A380F6"/>
<path d="M38.2802 68.6361C38.1362 61.5801 26.6882 64.1361 26.6882 59.4561C26.6882 57.8721 28.1282 56.7201 30.5402 56.7201C33.1682 56.7201 34.6802 58.1601 34.8242 60.1401H38.1002C37.8842 56.2881 35.0042 53.9481 30.6482 53.9481C26.2562 53.9481 23.4122 56.4321 23.4122 59.4561C23.4122 66.8001 35.0762 64.2441 35.0762 68.6361C35.0762 70.2561 33.6362 71.5521 31.0442 71.5521C28.2722 71.5521 26.5802 70.1121 26.4002 68.2041H23.0162C23.2322 71.8041 26.4722 74.3241 31.0802 74.3241C35.4362 74.3241 38.2802 71.8761 38.2802 68.6361Z" fill="#A380F6"/>
<path d="M43.6248 68.6001C43.6248 72.5601 45.6048 74.0001 49.0968 74.0001H52.0488V71.2281H49.6368C47.6208 71.2281 46.9008 70.5441 46.9008 68.6001V56.9721H52.0488V54.2721H46.9008V49.3041H43.6248V54.2721H41.0688V56.9721H43.6248V68.6001Z" fill="#A380F6"/>
<path d="M73.5141 54.2721H70.2381V65.1081C70.2381 69.3561 67.9701 71.4441 64.5861 71.4441C61.2741 71.4441 59.0781 69.3921 59.0781 65.3961V54.2721H55.8381V65.8281C55.8381 71.4801 59.4021 74.2881 63.9381 74.2881C66.5661 74.2881 68.9781 73.1361 70.2381 71.0841V74.0001H73.5141V54.2721Z" fill="#A380F6"/>
<path d="M77.8214 64.0641C77.8214 70.1841 81.8894 74.3241 87.1814 74.3241C90.7814 74.3241 93.3374 72.4881 94.5254 70.2921V74.0001H97.8374V47.3601H94.5254V57.8001C93.1574 55.5321 90.3134 53.9481 87.2174 53.9481C81.8894 53.9481 77.8214 57.9081 77.8214 64.0641ZM94.5254 64.1001C94.5254 68.7441 91.4294 71.4441 87.8294 71.4441C84.2294 71.4441 81.1694 68.7081 81.1694 64.0641C81.1694 59.4201 84.2294 56.7921 87.8294 56.7921C91.4294 56.7921 94.5254 59.5281 94.5254 64.1001Z" fill="#A380F6"/>
<path d="M122.094 64.1001C122.094 57.8721 117.738 53.9481 112.122 53.9481C106.542 53.9481 102.15 57.8721 102.15 64.1001C102.15 70.3641 106.398 74.3241 111.978 74.3241C117.594 74.3241 122.094 70.3641 122.094 64.1001ZM105.498 64.1001C105.498 59.1321 108.63 56.7921 112.086 56.7921C115.47 56.7921 118.746 59.1321 118.746 64.1001C118.746 69.1041 115.398 71.4441 111.978 71.4441C108.558 71.4441 105.498 69.1041 105.498 64.1001Z" fill="#A380F6"/>
<path d="M140.585 68.6361C140.441 61.5801 128.993 64.1361 128.993 59.4561C128.993 57.8721 130.433 56.7201 132.845 56.7201C135.473 56.7201 136.985 58.1601 137.129 60.1401H140.405C140.189 56.2881 137.309 53.9481 132.953 53.9481C128.561 53.9481 125.717 56.4321 125.717 59.4561C125.717 66.8001 137.381 64.2441 137.381 68.6361C137.381 70.2561 135.941 71.5521 133.349 71.5521C130.577 71.5521 128.885 70.1121 128.705 68.2041H125.321C125.537 71.8041 128.777 74.3241 133.385 74.3241C137.741 74.3241 140.585 71.8761 140.585 68.6361Z" fill="#A380F6"/>
<path d="M173.527 64.1001C173.527 57.8721 169.171 53.9481 163.555 53.9481C157.975 53.9481 153.583 57.8721 153.583 64.1001C153.583 70.3641 157.831 74.3241 163.411 74.3241C169.027 74.3241 173.527 70.3641 173.527 64.1001ZM156.931 64.1001C156.931 59.1321 160.063 56.7921 163.519 56.7921C166.903 56.7921 170.179 59.1321 170.179 64.1001C170.179 69.1041 166.831 71.4441 163.411 71.4441C159.991 71.4441 156.931 69.1041 156.931 64.1001Z" fill="#A380F6"/>
<path d="M192.271 74.0001H195.51V62.3721C195.51 56.7201 192.019 53.9121 187.447 53.9121C184.783 53.9121 182.407 55.0281 181.111 57.0801V54.2721H177.835V74.0001H181.111V63.0921C181.111 58.8441 183.415 56.7561 186.763 56.7561C190.075 56.7561 192.271 58.8081 192.271 62.8401V74.0001Z" fill="#A380F6"/>
<path d="M200.862 74.0001H204.138V47.3601H200.862V74.0001Z" fill="#A380F6"/>
<path d="M209.721 74.0001H212.997V54.2721H209.721V74.0001ZM211.413 51.0681C212.601 51.0681 213.573 50.0961 213.573 48.8361C213.573 47.5761 212.601 46.6041 211.413 46.6041C210.153 46.6041 209.181 47.5761 209.181 48.8361C209.181 50.0961 210.153 51.0681 211.413 51.0681Z" fill="#A380F6"/>
<path d="M233.017 74.0001H236.257V62.3721C236.257 56.7201 232.765 53.9121 228.193 53.9121C225.529 53.9121 223.153 55.0281 221.857 57.0801V54.2721H218.581V74.0001H221.857V63.0921C221.857 58.8441 224.161 56.7561 227.509 56.7561C230.821 56.7561 233.017 58.8081 233.017 62.8401V74.0001Z" fill="#A380F6"/>
<path d="M249.996 56.7201C253.38 56.7201 256.26 58.8441 256.224 62.6961H243.768C244.128 58.8441 246.792 56.7201 249.996 56.7201ZM259.212 67.9161H255.684C254.964 70.0401 253.092 71.5521 250.14 71.5521C246.792 71.5521 243.984 69.3561 243.732 65.3601H259.5C259.572 64.6761 259.608 64.1001 259.608 63.3801C259.608 57.9801 255.864 53.9481 250.14 53.9481C244.38 53.9481 240.384 57.8721 240.384 64.1001C240.384 70.3641 244.524 74.3241 250.14 74.3241C255.036 74.3241 258.204 71.5161 259.212 67.9161Z" fill="#A380F6"/>
<path d="M267.136 71.9841C267.136 70.7241 266.164 69.7521 264.976 69.7521C263.716 69.7521 262.744 70.7241 262.744 71.9841C262.744 73.2441 263.716 74.2161 264.976 74.2161C266.164 74.2161 267.136 73.2441 267.136 71.9841Z" fill="#A380F6"/>
</svg>
