<svg width="20" height="20" viewBox="0 0 20 20" fill="none" xmlns="http://www.w3.org/2000/svg">
<g clip-path="url(#clip0)">
<path d="M10.0018 0H9.99677C4.48302 0 -0.000732422 4.485 -0.000732422 10C-0.000732422 12.1875 0.704268 14.215 1.90302 15.8612L0.656768 19.5763L4.50052 18.3475C6.08177 19.395 7.96802 20 10.0018 20C15.5155 20 19.9993 15.5138 19.9993 10C19.9993 4.48625 15.5155 0 10.0018 0Z" fill="#4CAF50"/>
<path d="M15.8203 14.1212C15.5791 14.8025 14.6216 15.3675 13.8578 15.5325C13.3353 15.6437 12.6528 15.7325 10.3553 14.78C7.41659 13.5625 5.52409 10.5762 5.37659 10.3825C5.23534 10.1887 4.18909 8.80123 4.18909 7.36623C4.18909 5.93123 4.91784 5.23248 5.21159 4.93248C5.45284 4.68623 5.85159 4.57373 6.23409 4.57373C6.35784 4.57373 6.46909 4.57998 6.56909 4.58498C6.86284 4.59748 7.01034 4.61498 7.20409 5.07873C7.44534 5.65998 8.03284 7.09498 8.10284 7.24248C8.17409 7.38998 8.24534 7.58998 8.14534 7.78373C8.05159 7.98373 7.96909 8.07248 7.82159 8.24248C7.67409 8.41248 7.53409 8.54248 7.38659 8.72498C7.25159 8.88373 7.09909 9.05373 7.26909 9.34748C7.43909 9.63498 8.02659 10.5937 8.89159 11.3637C10.0078 12.3575 10.9128 12.675 11.2366 12.81C11.4778 12.91 11.7653 12.8862 11.9416 12.6987C12.1653 12.4575 12.4416 12.0575 12.7228 11.6637C12.9228 11.3812 13.1753 11.3462 13.4403 11.4462C13.7103 11.54 15.1391 12.2462 15.4328 12.3925C15.7266 12.54 15.9203 12.61 15.9916 12.7337C16.0616 12.8575 16.0616 13.4387 15.8203 14.1212Z" fill="#FAFAFA"/>
</g>
<defs>
<clipPath id="clip0">
<rect width="20" height="20" fill="white" transform="translate(-0.000732422)"/>
</clipPath>
</defs>
</svg>
